<svg width="42" height="42" viewBox="0 0 42 42" fill="none" xmlns="http://www.w3.org/2000/svg">
<g clip-path="url(#clip0_157_1532)">
<path d="M17.6777 0.0492172C13.8633 0.434761 10.6394 1.64062 7.77654 3.77343C4.22459 6.40664 1.69802 10.1555 0.61521 14.3883C0.155835 16.1684 0.0491943 17.1117 0.0491943 19.1543C0.0491943 21.1887 0.155835 22.1156 0.607007 23.9039C1.81287 28.6781 4.92185 32.8863 9.15466 35.4949L9.72068 35.8477H8.54763C7.4156 35.8477 7.36638 35.8559 7.17771 36.0527L6.97263 36.2496V38.5137V40.7695H5.12693H3.28123V38.9238V37.0781H4.30662C5.29099 37.0781 5.34841 37.0699 5.53709 36.873C5.79959 36.6187 5.79959 36.307 5.53709 36.0527C5.34021 35.8477 5.3156 35.8477 3.89646 35.8477C2.47732 35.8477 2.45271 35.8477 2.25584 36.0527L2.05076 36.2496V38.9238V41.598L2.25584 41.8031L2.45271 42L19.3347 41.9836L36.2168 41.959L36.7582 41.7457C37.0617 41.6309 37.4801 41.434 37.6933 41.3109C38.2101 41.0074 38.9484 40.2445 39.2355 39.7195C39.6539 38.9484 41.6801 34.0922 41.8441 33.477C42.0328 32.7551 42.041 32.1562 41.8769 31.3934C41.6719 30.4254 41.2781 29.8184 39.9246 28.3746C39.2273 27.6281 38.6121 27.0457 38.4972 27.0211C38.0707 26.9145 37.6523 27.3246 37.7672 27.743C37.7918 27.8496 38.1609 28.309 38.5875 28.7602L39.3668 29.5887L38.0625 30.8355C37.3406 31.5246 36.7172 32.0742 36.6844 32.0578C36.5941 32.025 34.8633 30.2203 34.8633 30.1629C34.8633 30.1301 35.0683 29.802 35.3144 29.4164C36.3234 27.8742 37.2012 25.8398 37.6933 23.9203C38.1445 22.1402 38.2594 21.1887 38.2594 19.1543C38.2594 17.1199 38.1445 16.1684 37.6933 14.3965C36.7746 10.8035 34.7074 7.36641 32.0414 4.9957C31.2785 4.31484 31.057 4.22461 30.7043 4.4707C30.4992 4.61836 30.4008 4.95469 30.5156 5.15976C30.5566 5.25 31.0406 5.75039 31.5902 6.28359C33.7558 8.4082 35.216 10.7051 36.1265 13.4531C37.6277 17.9566 37.3324 22.6078 35.2734 26.8816C34.3219 28.8586 33.3293 30.2531 31.7543 31.8363C30.2367 33.3539 28.7109 34.4449 26.7668 35.3801L25.8808 35.8066H19.1543H12.4195L11.2383 35.216C3.04334 31.1719 -0.746509 21.8531 2.26404 13.1988C3.14177 10.6805 4.5199 8.50664 6.51326 6.51328C9.31052 3.71601 12.5508 2.06718 16.5293 1.42734C17.8008 1.22226 20.5324 1.21406 21.7793 1.41914C24.1254 1.80468 26.1515 2.51836 28.1449 3.65039C28.5715 3.89648 29.0226 4.10156 29.1293 4.10156C29.3836 4.10156 29.6953 3.78984 29.6953 3.53555C29.6953 3.20742 29.5394 3.04336 28.7601 2.58398C26.7832 1.41914 24.3304 0.566013 21.9433 0.205074C21.0902 0.0738258 18.3914 -0.0246124 17.6777 0.0492172ZM40.5234 31.1555C40.9992 32.4105 40.7285 33.7723 39.8097 34.7895C39.6457 34.9699 39.4816 35.1094 39.4242 35.1094C39.375 35.1094 39.2519 34.9699 39.1453 34.7977C39.0387 34.6336 38.6449 34.1578 38.2676 33.7559L37.5785 33.0176L38.8664 31.7789C39.7933 30.8766 40.1789 30.5566 40.2527 30.6141C40.3101 30.6551 40.4332 30.9012 40.5234 31.1555ZM36.0117 33.1734C37.8984 35.1504 38.3004 35.6344 38.1855 35.7492C38.1609 35.782 35.9871 35.8148 33.3621 35.8312L28.5879 35.8559L29.4902 35.2652C31.0406 34.2562 32.3203 33.1734 33.3867 31.9594C33.7558 31.5246 34.0758 31.1719 34.084 31.1719C34.084 31.1719 34.9535 32.0742 36.0117 33.1734ZM38.7597 37.8246C38.3004 38.891 37.9887 39.4734 37.8164 39.5801C37.759 39.6129 37.7344 39.2191 37.7344 38.3578C37.7344 37.1027 37.7344 37.0781 37.923 37.0453C38.6039 36.9059 38.9402 36.8156 39.0469 36.75C39.1125 36.709 39.1781 36.6926 39.1945 36.709C39.2109 36.7172 39.014 37.2258 38.7597 37.8246ZM11.8945 38.9238V40.7695H10.0488H8.2031V38.9238V37.0781H10.0488H11.8945V38.9238ZM16.8164 38.9238V40.7695H14.9707H13.125V38.9238V37.0781H14.9707H16.8164V38.9238ZM21.7383 38.9238V40.7695H19.8926H18.0469V38.9238V37.0781H19.8926H21.7383V38.9238ZM26.6601 38.9238V40.7695H24.8144H22.9687V38.9238V37.0781H24.8144H26.6601V38.9238ZM31.582 38.9238V40.7695H29.7363H27.8906V38.9238V37.0781H29.7363H31.582V38.9238ZM36.5039 38.8008V40.5234L36.2824 40.6219C36.143 40.6793 35.4129 40.7285 34.4367 40.7531L32.8125 40.7859V38.932V37.0781H34.6582H36.5039V38.8008Z" fill="white"/>
<path d="M17.9238 2.51015C16.6031 2.65781 15.2168 3.05156 14.2324 3.55195C13.4531 3.9621 12.6 4.7332 12.2555 5.34843C12.0422 5.74218 12.0176 5.84882 12.0176 6.56249C12.0176 7.26796 12.0422 7.39921 12.2801 7.8996C12.9938 9.40898 14.4047 11.0004 15.9879 12.075C18.1699 13.5598 20.0402 13.5844 22.2141 12.1488C23.4691 11.3121 24.6094 10.1719 25.4379 8.91679C26.0367 8.01445 26.2664 7.41562 26.3156 6.68554C26.3648 5.7996 26.1434 5.29101 25.3559 4.51171C24.4453 3.60117 23.3051 3.05976 21.5496 2.69882C20.7293 2.53476 18.7031 2.42812 17.9238 2.51015ZM21.4758 3.92929C22.7637 4.2082 23.8137 4.70039 24.4699 5.32382C24.7816 5.61914 25.0688 6.0539 24.9949 6.12773C24.9703 6.14413 24.7324 6.07031 24.4699 5.95546C23.7563 5.66015 22.4684 5.29101 21.5332 5.11874C20.393 4.91367 17.9238 4.91367 16.7754 5.11874C15.8977 5.2746 14.3965 5.70117 13.7484 5.98828C13.527 6.07851 13.3301 6.14413 13.3137 6.11953C13.2398 6.0457 13.5434 5.59453 13.8797 5.28281C14.7246 4.50351 16.1109 3.97851 17.9648 3.74062C18.6293 3.65859 20.7293 3.77343 21.4758 3.92929ZM21.6152 6.39843C22.5012 6.5707 23.6578 6.93164 24.4043 7.25976L24.8719 7.46484L24.6012 7.94062C24.2402 8.59687 23.666 9.29413 22.9113 10.016C22.1402 10.7543 21.4758 11.2219 20.6063 11.632C20.0074 11.9191 19.9336 11.9355 19.1543 11.9355C18.375 11.9355 18.3012 11.9191 17.7023 11.632C16.8246 11.2137 16.1602 10.7461 15.3563 9.97499C14.3637 9.02343 13.3383 7.6207 13.5105 7.45663C13.5434 7.42382 13.8961 7.26796 14.2816 7.1039C15.3316 6.67734 16.2914 6.43945 18.0059 6.20156C18.5883 6.11953 20.8277 6.24257 21.6152 6.39843Z" fill="white"/>
<path d="M7.9242 8.3672C6.91522 8.6297 5.65193 9.64688 4.7742 10.9266C3.82264 12.3211 3.01873 14.4293 2.78904 16.1356C2.62498 17.3086 2.71522 18.9984 2.97772 19.8106C3.32225 20.877 3.91287 21.6316 4.66756 22.0008C5.51248 22.4109 7.1449 22.2305 8.67889 21.5742C9.26131 21.3281 9.40897 20.9508 9.09725 20.557C8.88397 20.2863 8.62967 20.2863 7.916 20.5488C7.61248 20.6637 7.12029 20.8113 6.83318 20.8688C6.3574 20.9754 6.29998 20.9672 6.25076 20.8441C6.21795 20.7703 6.19334 20.032 6.19334 19.1953C6.19334 17.9484 6.22615 17.5137 6.38201 16.7508C6.84139 14.4621 7.80936 12.4442 9.26951 10.7133C9.51561 10.418 9.7617 10.1801 9.81092 10.1801C10.0324 10.1637 10.984 11.4598 11.4762 12.4442C12.2062 13.8961 12.5097 15.0281 12.4523 16.1438C12.4277 16.759 12.3785 16.9313 12.1488 17.366C11.8699 17.8828 11.3695 18.4488 10.6066 19.1215C10.1062 19.5481 10.0488 19.8188 10.3769 20.1387C10.6394 20.4094 10.8937 20.393 11.2875 20.1141C12.2719 19.3922 13.125 18.3586 13.4613 17.4809C13.6828 16.9067 13.7566 15.668 13.6254 14.8887C13.3957 13.5926 12.7312 11.9848 11.9191 10.7543C11.3203 9.85196 10.3441 8.86759 9.77811 8.58048C9.27772 8.32618 8.4574 8.23595 7.9242 8.3672ZM8.56404 9.61407C8.53123 9.67149 8.27694 9.99142 7.99803 10.3359C6.6035 12.0668 5.53709 14.4457 5.11873 16.7754C5.01209 17.366 4.97108 18.0305 4.97108 19.1707L4.96287 20.7457L4.7742 20.5652C4.49529 20.3027 4.19998 19.6957 4.05233 19.0559C3.84725 18.1945 3.93748 16.3078 4.22459 15.184C4.92186 12.5098 6.42303 10.2621 7.9324 9.6797C8.39178 9.49923 8.65428 9.47462 8.56404 9.61407Z" fill="white"/>
<path d="M29.039 8.35899C27.3082 8.92501 25.3722 11.7551 24.7324 14.6262C24.5437 15.4957 24.593 16.8328 24.8472 17.4809C25.5527 19.302 27.9808 21.1477 30.7207 21.9434C32.3531 22.4191 33.4441 22.2961 34.2562 21.5578C34.7976 21.0574 35.1258 20.4996 35.3719 19.6465C35.5359 19.0723 35.5605 18.8098 35.5605 17.5547C35.5605 16.4637 35.5277 15.9551 35.4047 15.4219C35.1668 14.3145 34.814 13.3219 34.289 12.2637C33.1242 9.89298 31.4508 8.40821 29.843 8.32618C29.5148 8.30157 29.1539 8.31798 29.039 8.35899ZM30.6469 9.80274C30.8847 9.91759 31.3195 10.2621 31.6312 10.5656C33.2637 12.1816 34.3711 15.0199 34.3711 17.5875C34.3711 19.0066 34.0676 20.0731 33.518 20.5816L33.3129 20.7785L33.3621 19.8024C33.5344 16.3734 32.2957 12.6738 30.1301 10.1145C29.8922 9.83555 29.6953 9.58126 29.6953 9.54844C29.6953 9.45001 30.2121 9.59766 30.6469 9.80274ZM29.039 10.7133C30.4664 12.4031 31.4754 14.5031 31.9101 16.7016C32.0988 17.6285 32.1972 19.6301 32.0988 20.4258L32.0332 20.959L31.7461 20.9344C31.5902 20.918 31.139 20.7949 30.7453 20.6719C28.6207 19.9664 26.7176 18.5637 26.0777 17.2512C25.7168 16.5047 25.7824 15.0774 26.2254 13.8223C26.4715 13.125 27.0703 11.9274 27.4148 11.4106C27.8004 10.8363 28.3828 10.1719 28.4894 10.1801C28.5469 10.1801 28.793 10.418 29.039 10.7133Z" fill="white"/>
<path d="M18.4981 17.4316C18.0797 17.5793 17.5137 18.1781 17.3988 18.5883C17.1938 19.3184 17.3496 19.909 17.8746 20.434C18.6293 21.1969 19.6629 21.1887 20.4258 20.4258C21.1887 19.6629 21.1887 18.6457 20.4258 17.8828C19.8844 17.3332 19.2117 17.1774 18.4981 17.4316ZM19.5645 18.7441C19.6793 18.8508 19.7696 19.0395 19.7696 19.1543C19.7696 19.425 19.425 19.7695 19.1543 19.7695C18.8836 19.7695 18.5391 19.425 18.5391 19.1543C18.5391 18.8836 18.8836 18.5391 19.1543 18.5391C19.2692 18.5391 19.4578 18.6293 19.5645 18.7441Z" fill="white"/>
<path d="M10.9593 23.059C10.5573 23.1 9.84367 23.2231 9.38429 23.3379C7.09562 23.8875 5.90617 24.6914 5.53703 25.9465C4.6675 28.8832 9.03156 33.6246 13.4941 34.5844C14.3144 34.7649 15.5038 34.7484 16.1273 34.5516C17.6366 34.0758 18.2109 32.993 18.2109 30.6387C18.2109 28.1203 17.4726 25.807 16.2749 24.5274C15.4136 23.625 14.5359 23.2231 13.0019 23.0508C12.1734 22.9606 12.0011 22.9606 10.9593 23.059ZM13.6827 24.4043C13.9616 24.4699 14.3718 24.6176 14.5851 24.7242C15.9878 25.4379 16.9968 27.9234 16.9968 30.6879C16.9968 31.2621 16.964 31.7871 16.923 31.8527C16.8655 31.9512 16.7179 31.9348 15.9222 31.7379C13.1249 31.0242 10.5327 29.3016 8.77726 26.9801C8.29328 26.332 7.71086 25.4051 7.71086 25.2656C7.71086 25.159 8.8757 24.7078 9.61398 24.5274C11.0167 24.191 12.5589 24.15 13.6827 24.4043ZM8.51476 28.5879C10.3441 30.6879 12.9527 32.2629 15.7417 32.9684L16.3569 33.116L16.0862 33.2555C13.9698 34.3547 9.16281 31.8691 7.3007 28.7192C6.81672 27.8906 6.55422 26.8734 6.69367 26.3567C6.73468 26.2008 6.82492 26.291 7.3007 27.0129C7.61242 27.4723 8.15382 28.1859 8.51476 28.5879Z" fill="white"/>
<path d="M25.1836 23.059C24.0434 23.1902 23.1164 23.543 22.4848 24.068C21.6645 24.757 21.0985 25.684 20.6391 27.0867C19.9664 29.1375 19.8926 31.7297 20.4586 33.0996C21.2543 34.9863 24.1418 35.257 27.1934 33.7313C28.4731 33.0914 29.5969 32.2547 30.6797 31.1227C33.1078 28.5961 33.5672 25.8645 31.7953 24.552C31.1965 24.1008 30.5567 23.7973 29.6133 23.5102C28.2598 23.1 26.3895 22.9113 25.1836 23.059ZM27.1606 24.2813C27.6282 24.3305 28.3172 24.4453 28.6946 24.5273C29.441 24.7078 30.5977 25.159 30.5977 25.2738C30.5977 25.3148 30.4418 25.5938 30.2614 25.8973C28.4075 28.9242 25.3969 31.0734 21.927 31.8527C21.4266 31.9676 21.4102 31.9676 21.361 31.7953C21.2707 31.5082 21.2953 29.7856 21.4102 29.0801C21.7301 26.9883 22.6325 25.2738 23.6989 24.7324C24.6012 24.2813 25.7004 24.1336 27.1606 24.2813ZM31.5985 27.1688C31.0981 29.843 27.2918 33.034 24.0762 33.4606C23.3461 33.559 22.6571 33.4852 22.2223 33.2555L21.9516 33.1242L22.7145 32.9273C26.1352 32.0414 29.277 29.7691 31.1145 26.8488L31.541 26.1762L31.6149 26.4223C31.6641 26.5863 31.6559 26.8488 31.5985 27.1688Z" fill="white"/>
</g>
<defs>
<clipPath id="clip0_157_1532">
<rect width="42" height="42" fill="white"/>
</clipPath>
</defs>
</svg>
