<svg width="28" height="28" viewBox="0 0 28 28" fill="none" xmlns="http://www.w3.org/2000/svg">
<g id="search 1" clip-path="url(#clip0_8_23)">
<path id="Vector" d="M20.5008 18.8864L20.3576 19.0615L20.5175 19.2214L27.4798 26.1836C27.6458 26.3564 27.7377 26.5873 27.7356 26.827C27.7335 27.0673 27.6371 27.2972 27.4672 27.4672C27.2972 27.6371 27.0673 27.7335 26.827 27.7356C26.5873 27.7377 26.3564 27.6458 26.1836 27.4798L19.2214 20.5175L19.0615 20.3576L18.8864 20.5008C16.6151 22.3579 13.7169 23.271 10.7912 23.0512C7.86555 22.8314 5.1363 21.4955 3.16799 19.3198C1.19967 17.1441 0.142889 14.2951 0.216223 11.3622C0.289557 8.42917 1.4874 5.63657 3.56198 3.56198C5.63657 1.4874 8.42917 0.289557 11.3622 0.216223C14.2951 0.142889 17.1441 1.19967 19.3198 3.16799C21.4955 5.1363 22.8314 7.86555 23.0512 10.7912C23.271 13.7169 22.3579 16.6151 20.5008 18.8864ZM11.6667 21.25H11.6669C14.2076 21.2471 16.6435 20.2366 18.44 18.44C20.2366 16.6435 21.2471 14.2076 21.25 11.6669V11.6667C21.25 9.77125 20.6879 7.91841 19.6349 6.34244C18.5819 4.76647 17.0852 3.53815 15.334 2.81281C13.5829 2.08747 11.656 1.89769 9.79704 2.26746C7.93806 2.63724 6.23047 3.54996 4.89022 4.89022C3.54996 6.23047 2.63724 7.93806 2.26746 9.79704C1.89769 11.656 2.08747 13.5829 2.81281 15.334C3.53815 17.0852 4.76647 18.5819 6.34244 19.6349C7.91841 20.6879 9.77125 21.25 11.6667 21.25Z" fill="white" stroke="#042D29" stroke-width="0.5"/>
</g>
<defs>
<clipPath id="clip0_8_23">
<rect width="28" height="28" fill="white"/>
</clipPath>
</defs>
</svg>
